<svg width="72.000000" height="72.000000" viewBox="0 0 72 72" fill="none" xmlns="http://www.w3.org/2000/svg" xmlns:xlink="http://www.w3.org/1999/xlink">
	<defs/>
	<path id="Vector" d="M71.28 51.01C71.23 50.96 71.16 50.91 71.09 50.84C67.06 47 62.9 45.53 58.72 46.46C58.03 46.61 57.55 46.81 56.94 47.2L42.43 56.36C42.01 52.44 39.13 48.39 36.12 47.15L17.74 42.22L17.51 42.16C16.82 41.96 16.18 41.84 15.2 42.45L0.82 51.53C0.63 51.65 0.17 51.94 0.03 52.55C-0.11 53.16 0.18 53.6 0.34 53.85L9.85 68.95C9.94 69.1 10.23 69.56 10.86 69.7C11.48 69.83 11.95 69.53 12.11 69.42C12.76 69.02 13.41 68.61 14.06 68.2C18.37 68.55 23.03 69.32 27.54 70.06C31.88 70.78 36.37 71.52 40.62 71.91L41.62 71.99C41.66 71.99 41.7 72 41.73 72C42.07 72 42.35 71.91 42.67 71.72L70.96 53.85C71.3 53.64 71.93 53.24 71.99 52.44C72.05 51.67 71.53 51.22 71.28 51.01ZM2.33 53.94L1.53 52.76L2.44 53.86C2.41 53.89 2.37 53.92 2.33 53.94ZM41.42 69.14C41.23 69.12 41.05 69.11 40.87 69.09C36.75 68.72 32.31 67.99 28.01 67.28C23.38 66.52 18.59 65.73 14.11 65.37C14.02 65.36 13.93 65.35 13.85 65.35C13.28 65.35 12.96 65.53 12.58 65.76C12.26 65.97 11.94 66.17 11.62 66.38L3.37 53.28L16.69 44.87L35.08 49.78C37.3 50.77 39.59 54.43 39.6 57.35L22.04 53.38C21.26 53.21 20.49 53.68 20.31 54.44C20.13 55.2 20.62 55.96 21.39 56.14L40.47 60.44C40.87 60.53 41.27 60.45 41.59 60.25L58.5 49.57C58.83 49.37 59 49.29 59.36 49.21C62.32 48.55 65.25 49.52 68.31 52.16L41.42 69.14Z" fill="#4F4F4F" fill-opacity="1.000000" fill-rule="nonzero"/>
	<path id="Vector" d="M27.23 38.86C27.62 38.86 28.02 38.69 28.29 38.37C32.44 33.39 39.63 30.42 47.53 30.42C55.42 30.42 62.62 33.39 66.76 38.37C67.25 38.95 68.12 39.03 68.71 38.54C69.3 38.05 69.38 37.18 68.89 36.6C65.61 32.66 60.68 29.84 55.02 28.51C59.71 25.93 62.91 20.93 62.91 15.19C62.91 6.81 56.1 0 47.73 0C39.37 0 32.56 6.81 32.56 15.19C32.56 20.88 35.7 25.84 40.33 28.45C34.55 29.74 29.5 32.59 26.16 36.6C25.67 37.18 25.75 38.06 26.34 38.54C26.6 38.76 26.91 38.86 27.23 38.86ZM35.33 15.19C35.33 8.34 40.9 2.76 47.74 2.76C54.57 2.76 60.14 8.34 60.14 15.19C60.14 22.04 54.57 27.62 47.74 27.62C40.9 27.62 35.33 22.04 35.33 15.19Z" fill="#4F4F4F" fill-opacity="1.000000" fill-rule="nonzero"/>
</svg>
