<svg width="66.000000" height="62.000000" viewBox="0 0 66 62" fill="none" xmlns="http://www.w3.org/2000/svg" xmlns:xlink="http://www.w3.org/1999/xlink">
	<defs/>
	<path d="M65.62 11.47L61.96 6.81L65.74 1.9C66.02 1.53 66.06 1.05 65.83 0.65C65.6 0.25 65.15 0 64.66 0L50.54 0C49.09 0 47.92 1.13 47.92 2.53L47.92 3.03C47.92 3.04 47.91 3.06 47.91 3.07L47.91 21.54L43.84 21.54C40.3 21.54 37.42 24.33 37.42 27.75L37.42 33.13C36.05 31.84 34.19 31.05 32.13 31.05C27.93 31.05 24.51 34.36 24.51 38.44L24.51 43.19C23.19 42.02 21.43 41.3 19.5 41.3C15.38 41.3 12.03 44.55 12.03 48.55L12.03 51.58C10.87 50.7 9.41 50.17 7.83 50.17L6.83 50.17C3.06 50.17 0 53.15 0 56.8L0 60.79C0 61.45 0.58 62 1.32 62L13.35 62C13.35 62 13.36 61.99 13.36 61.99L25.66 61.99C25.7 61.99 25.73 61.99 25.76 61.98C25.79 61.98 25.81 61.99 25.83 61.99L38.44 61.99C38.48 61.99 38.53 61.98 38.57 61.98C38.63 61.99 38.69 61.99 38.75 61.99L61.82 61.99C62.55 61.99 63.14 61.45 63.14 60.79L63.14 27.75C63.14 24.33 60.26 21.54 56.72 21.54L50.55 21.54L50.55 13.52L64.66 13.52C64.66 13.52 64.67 13.52 64.67 13.52C65.41 13.52 66 12.98 66 12.31C66 11.99 65.85 11.69 65.62 11.47ZM2.64 56.8C2.64 54.48 4.52 52.59 6.83 52.59L7.83 52.59C10.14 52.59 12.03 54.48 12.03 56.8L12.03 59.58L2.63 59.58L2.63 56.8L2.64 56.8ZM24.34 59.58L14.67 59.58L14.67 56.8L14.67 48.55C14.67 45.89 16.83 43.72 19.5 43.72C22.17 43.72 24.34 45.89 24.34 48.55L24.34 59.58ZM37.12 59.58L27.16 59.58L27.16 38.44C27.16 35.69 29.39 33.46 32.14 33.46C34.88 33.46 37.12 35.69 37.12 38.44L37.12 59.58ZM60.5 27.75L60.5 59.58L40.07 59.58L40.07 27.75C40.07 25.66 41.76 23.96 43.84 23.96L48.89 23.96C49 23.99 49.12 24 49.23 24C49.35 24 49.47 23.99 49.57 23.96L56.72 23.96C58.8 23.96 60.5 25.66 60.5 27.75ZM50.56 11.11L50.56 2.53C50.56 2.46 50.58 2.42 50.56 2.41L62.12 2.41L59.53 5.78C59.04 6.42 58.85 7 59.5 7.81L62.09 11.11L50.56 11.11L50.56 11.11Z" fill="#4F4F4F" fill-opacity="1.000000" fill-rule="nonzero"/>
</svg>
