<svg width="68.000000" height="67.000000" viewBox="0 0 68 67" fill="none" xmlns="http://www.w3.org/2000/svg" xmlns:xlink="http://www.w3.org/1999/xlink">
	<defs/>
	<path id="Vector" d="M67 36.46L51.54 27.62C51.53 24.86 51.53 22.17 51.53 19.5C51.53 16.6 51.52 13.7 51.52 10.7C51.52 10.7 51.52 10.69 51.52 10.69C51.52 10.67 51.52 10.65 51.52 10.63C51.52 10.02 51.1 9.51 50.53 9.38L34.41 0.17C34.02 -0.06 33.53 -0.06 33.14 0.16L16.9 9.36C16.82 9.4 16.75 9.45 16.69 9.51C16.63 9.55 16.58 9.6 16.54 9.65C16.34 9.88 16.23 10.17 16.22 10.49C16.22 10.49 16.22 10.49 16.22 10.49C16.22 10.49 16.22 10.49 16.22 10.5C16.22 13.63 16.23 16.53 16.24 19.43C16.25 22.1 16.26 24.77 16.26 27.62L0.67 36.44C0.59 36.48 0.52 36.53 0.45 36.59C0.4 36.63 0.35 36.68 0.31 36.73C0.12 36.95 0 37.25 0 37.57C0 37.57 0 37.57 0 37.57C0 37.57 0 37.58 0 37.58L0 55.57C0 56.04 0.25 56.47 0.65 56.7L17.14 66.04C17.33 66.15 17.56 66.21 17.8 66.21C18.04 66.21 18.26 66.15 18.46 66.04L34.17 57.16L49.84 66.04C50.03 66.15 50.26 66.21 50.5 66.21C50.74 66.21 50.96 66.15 51.15 66.04L67.34 56.89C67.75 56.66 68 56.24 68 55.77L68 37.71C67.99 37.1 67.57 36.59 67 36.46ZM48.95 19.5C48.95 22.18 48.96 24.86 48.96 27.63L35.32 35.6L35.32 20.6L48.94 12.9C48.94 15.13 48.94 17.32 48.95 19.5ZM33.77 2.77L47.62 10.69L34.03 18.37L20.13 10.5L33.77 2.77ZM32.73 20.6L32.73 35.56L18.84 27.62C18.83 24.77 18.83 22.1 18.82 19.43C18.82 17.22 18.81 15.02 18.81 12.71L32.73 20.6ZM16.51 62.71L2.58 54.82L2.58 39.79L16.51 47.68L16.51 62.71ZM17.8 45.45L3.9 37.58L17.54 29.85L31.35 37.79L17.8 45.45ZM19.09 47.68L32.69 40L32.69 55.03L19.09 62.71L19.09 47.68ZM49.2 62.71L35.3 54.83L35.3 39.62L49.2 47.67L49.2 62.71ZM50.5 45.44L37.01 37.63L50.25 29.86L64.09 37.77L50.5 45.44ZM65.41 55.02L51.79 62.71L51.79 47.68L65.41 39.99L65.41 55.02Z" fill="#4F4F4F" fill-opacity="1.000000" fill-rule="nonzero"/>
</svg>
