<svg width="54.000000" height="69.000000" viewBox="0 0 54 69" fill="none" xmlns="http://www.w3.org/2000/svg" xmlns:xlink="http://www.w3.org/1999/xlink">
	<defs/>
	<path id="Vector" d="M53.44 9.26C52.9 8.73 52.2 8.73 51.83 8.73L51.09 8.74L50.73 8.73C43.81 8.58 36.47 5.93 28.93 0.87L28.66 0.69C28.1 0.3 27.65 0 27 0C26.35 0 25.91 0.3 25.35 0.68L25.05 0.88C17.38 6.03 9.93 8.67 2.9 8.74L2.5 8.74C1.68 8.74 1.04 8.74 0.5 9.28C-0.03 9.81 -0.01 10.46 0 11.08C0 11.22 0.01 11.38 0.01 11.57L0.01 42.19C0.01 43.95 0.09 44.9 0.94 46.55C6.08 56.59 14.57 64.14 26.18 69L27.26 69C39.13 64.03 47.74 56.6 52.87 46.91C53.66 45.41 54 44.5 54 42.73L54 11.39C54 10.47 54 9.81 53.44 9.26ZM51.25 42.73C51.25 43.95 51.08 44.46 50.44 45.67C45.69 54.64 37.71 61.58 26.72 66.29C16 61.68 8.16 54.64 3.4 45.35C2.78 44.15 2.75 43.6 2.75 42.19L2.75 11.57C2.75 11.52 2.75 11.48 2.75 11.43L2.93 11.43C10.51 11.36 18.48 8.56 26.6 3.1L26.92 2.89C26.95 2.87 26.98 2.85 27 2.83C27.03 2.85 27.07 2.88 27.1 2.9L27.38 3.09C35.37 8.45 43.21 11.26 50.67 11.43C50.82 11.43 50.96 11.43 51.09 11.43L51.25 11.43L51.25 42.73L51.25 42.73Z" fill="#4F4F4F" fill-opacity="1.000000" fill-rule="nonzero"/>
</svg>
