<svg width="74.000000" height="74.000000" viewBox="0 0 74 74" fill="none" xmlns="http://www.w3.org/2000/svg" xmlns:xlink="http://www.w3.org/1999/xlink">
	<desc>
			Created with Pixso.
	</desc>
	<defs/>
	<path id="Vector" d="M37 45.22C36.27 45.22 35.72 44.9 34.89 44.4L30.1 41.57L1.74 24.77C0.68 24.14 -0.02 23.73 0 22.77C0.01 21.85 0.73 21.46 1.37 21.11C1.57 21 1.8 20.88 2.07 20.72C7.48 17.49 12.98 14.13 18.29 10.88C23.87 7.47 29.64 3.94 35.35 0.55C35.84 0.26 36.33 0 36.91 0C37.51 0 37.94 0.26 38.38 0.53L38.68 0.72C44.28 4.04 49.98 7.5 55.48 10.85C61.11 14.27 66.93 17.81 72.65 21.21L72.88 21.34C73.35 21.62 74 22 74 22.85C73.99 23.71 73.34 24.08 72.91 24.33L72.62 24.49C66.91 27.87 61.23 31.26 55.54 34.64C50.12 37.87 44.7 41.09 39.26 44.32C38.29 44.9 37.74 45.22 37 45.22ZM3.73 22.84L36.26 42.11C36.55 42.28 36.84 42.45 37 42.53C37.17 42.45 37.51 42.25 37.83 42.06C43.34 38.8 48.75 35.57 54.17 32.35C59.5 29.18 64.82 26.01 70.16 22.84C64.79 19.64 59.36 16.34 54.09 13.13C48.59 9.79 42.91 6.33 37.32 3.01L36.97 2.8C36.94 2.78 36.91 2.77 36.89 2.75C36.84 2.77 36.79 2.81 36.72 2.84C31.03 6.23 25.26 9.75 19.68 13.16C14.46 16.36 9.07 19.66 3.73 22.84Z" fill="#4F4F4F" fill-opacity="1.000000" fill-rule="nonzero"/>
	<path id="Vector" d="M36.99 62.02C36.87 62.02 36.75 62 36.63 61.97C36.5 61.93 36.38 61.88 36.28 61.81L8.52 44.92L8.52 28.71C8.52 27.97 9.12 27.37 9.86 27.37C10.6 27.37 11.2 27.97 11.2 28.71L11.2 43.42L35.65 58.3L35.65 45.32C35.65 44.58 36.25 43.99 36.99 43.99C37.73 43.99 38.33 44.58 38.33 45.32L38.33 58.29L62.79 43.4L62.79 28.69C62.79 27.95 63.39 27.35 64.13 27.35C64.87 27.35 65.47 27.95 65.47 28.69L65.47 44.9L37.82 61.73C37.76 61.77 37.71 61.81 37.65 61.84C37.49 61.94 37.3 62 37.11 62.01C37.07 62.02 37.03 62.02 36.99 62.02Z" fill="#4F4F4F" fill-opacity="1.000000" fill-rule="nonzero"/>
	<path id="Vector" d="M60.68 73.93L48.22 73.93L48.22 60.97C48.22 57.82 51.01 55.25 54.45 55.25C57.89 55.25 60.68 57.81 60.68 60.97L60.68 73.93L60.68 73.93ZM50.89 71.26L58 71.26L58 60.97C58 59.29 56.41 57.92 54.45 57.92C52.49 57.92 50.89 59.29 50.89 60.97L50.89 71.26L50.89 71.26Z" fill="#4F4F4F" fill-opacity="1.000000" fill-rule="nonzero"/>
	<path id="Vector" d="M54.33 57.03C53.59 57.03 53 56.44 53 55.7L53 34.47L35.64 23.8C35.01 23.41 34.82 22.59 35.21 21.96C35.59 21.33 36.42 21.14 37.05 21.53L55.67 32.97L55.67 55.7C55.67 56.44 55.07 57.03 54.33 57.03Z" fill="#4F4F4F" fill-opacity="1.000000" fill-rule="nonzero"/>
</svg>
